<svg xmlns="http://www.w3.org/2000/svg" viewBox="0 0 512 512" width="512" height="512">
  <!-- Black Background Canvas -->
  <rect width="512" height="512" rx="100" fill="#000000" />
  
  <!-- Red Organic Circle -->
  <path d="M 256 52 
           C 356 52, 436 128, 436 226 
           C 436 324, 356 400, 256 400 
           C 238 400, 222 396, 210 404 
           C 204 416, 208 424, 204 426
           C 200 422, 196 408, 190 398
           C 126 386, 76 316, 76 226 
           C 76 128, 156 52, 256 52 Z" 
        fill="#FF2636" />

  <!-- Handwritten "H" in White -->
  <g fill="none" stroke="#FFFFFF" stroke-width="24" stroke-linecap="round" stroke-linejoin="round">
    <!-- Left vertical leg of H -->
    <path d="M 180 148 Q 174 220 166 295" />
    <!-- Horizontal crossbar of H -->
    <path d="M 152 228 Q 192 222 236 214" />
    <!-- Right vertical leg of H -->
    <path d="M 230 162 Q 224 222 218 276" />

    <!-- Handwritten "C" in White -->
    <path d="M 334 162 
             C 290 148, 252 182, 256 230 
             C 260 274, 296 298, 340 276" stroke-width="26" />
  </g>

  <!-- "Home cooking" Handwritten Subtitle Text -->
  <g fill="#FFFFFF">
    <text x="256" y="474" 
          text-anchor="middle" 
          font-family="'Caveat', 'Segoe Script', 'Brush Script MT', 'Dancing Script', cursive, sans-serif" 
          font-weight="700" 
          font-size="64" 
          letter-spacing="1">Home cooking</text>
  </g>
</svg>
